<svg width="32" height="32" viewBox="0 0 32 32" fill="none" xmlns="http://www.w3.org/2000/svg">
<rect width="32" height="32" rx="16" fill="#E0E3E6"/>
<path d="M18.8127 11.5C18.8127 12.2459 18.5164 12.9613 17.989 13.4887C17.4615 14.0162 16.7461 14.3125 16.0002 14.3125C15.2543 14.3125 14.5389 14.0162 14.0115 13.4887C13.484 12.9613 13.1877 12.2459 13.1877 11.5C13.1877 10.7541 13.484 10.0387 14.0115 9.51126C14.5389 8.98382 15.2543 8.6875 16.0002 8.6875C16.7461 8.6875 17.4615 8.98382 17.989 9.51126C18.5164 10.0387 18.8127 10.7541 18.8127 11.5ZM11.8661 22.8582C10.3136 22.5296 9.27885 20.987 10.0124 19.5798C10.2819 19.0631 10.6323 18.5867 11.0554 18.1705C12.1075 17.1354 14.5243 16.5554 16.0002 16.5554C17.4762 16.5554 19.893 17.1354 20.9451 18.1705C21.3679 18.5864 21.7181 19.0624 21.9875 19.5788C22.7216 20.9863 21.6868 22.5313 20.1338 22.8603C18.7134 23.1612 17.1771 23.3141 16.0002 23.3125C14.7951 23.3125 13.2661 23.1546 11.8661 22.8582Z" fill="#7B8184"/>
</svg>
