<svg width="18" height="18" viewBox="0 0 18 18" fill="none" xmlns="http://www.w3.org/2000/svg">
<path d="M4.58726 15.5746C3.8374 15.3153 3.35281 14.5661 3.54795 13.797C3.79889 12.808 4.31638 11.8975 5.05536 11.1705C6.10749 10.1354 7.52429 9.5553 9.00023 9.5553C10.4762 9.5553 11.893 10.1354 12.9451 11.1705C13.6839 11.8974 14.2014 12.8077 14.4524 13.7964C14.6476 14.5657 14.1626 15.3152 13.4125 15.5745C11.9961 16.064 10.5049 16.3145 9.00023 16.3124C7.45497 16.3124 5.97017 16.0528 4.58726 15.5746Z" fill="#7B8184"/>
<path d="M11.1213 7.12132C11.6839 6.55871 12 5.79565 12 5C12 4.20435 11.6839 3.44129 11.1213 2.87868C10.5587 2.31607 9.79565 2 9 2C8.20435 2 7.44129 2.31607 6.87868 2.87868C6.31607 3.44129 6 4.20435 6 5C6 5.79565 6.31607 6.55871 6.87868 7.12132C7.44129 7.68393 8.20435 8 9 8C9.79565 8 10.5587 7.68393 11.1213 7.12132Z" fill="#7B8184"/>
</svg>
