<svg width="236" height="43" viewBox="0 0 236 43" fill="none" xmlns="http://www.w3.org/2000/svg">
<path d="M6.63882 9.36191C1.25052 12.8608 2.81919 18.8964 4.27707 21.4768C5.36175 15.2838 12.6015 12.4526 16.0858 11.8111L15.1673 10.5428C17.3717 10.1229 20.4011 10.9218 21.6403 11.3738C19.7888 12.715 16.1558 15.3013 16.4357 14.9164C16.7156 14.5315 16.5523 13.3565 16.4357 12.8171C14.3947 13.4877 9.91901 15.7911 8.3445 19.6399C6.77 23.4887 8.21329 26.3753 9.13175 27.3375L12.412 20.4709H16.4357L9.35043 36.2159H13.4179L22.2526 16.7971H26.2763L17.5728 36.2159H21.6403L32.5744 11.8111H36.5981C34.5687 10.4816 30.6208 9.82843 28.9005 9.66806C23.0399 6.60653 13.3742 4.98829 6.63882 9.36191Z" fill="#9FA3A7"/>
<path d="M25.7515 36.1286L35.6796 14.2605C37.8664 16.491 42.1963 21.8269 40.0532 27.1627C38.3387 31.4313 33.3616 33.0816 31.0873 33.3732L29.8627 36.1286H25.7515Z" fill="#9FA3A7"/>
<path d="M65.7838 22.1096L70.4671 21.6167L74.5033 29.3194C74.6266 29.5659 74.7704 29.7508 74.9347 29.874C75.099 29.9973 75.2839 30.0794 75.4893 30.1205C75.7152 30.1616 75.9617 30.1821 76.2287 30.1821H76.4752V32H70.4054L65.7838 22.1096ZM63.1648 29.874C63.1648 29.9357 63.2162 29.987 63.3189 30.0281C63.4421 30.0486 63.5962 30.0794 63.7811 30.1205C63.9659 30.1411 64.1713 30.1616 64.3973 30.1821C64.6232 30.1821 64.8389 30.1821 65.0443 30.1821H65.3832V32H55.8318V30.1821H56.1707C56.7664 30.1821 57.2594 30.1103 57.6497 29.9665C58.0605 29.8227 58.2659 29.5248 58.2659 29.0729V13.0512C58.2659 12.5993 58.0605 12.3014 57.6497 12.1577C57.2594 12.0139 56.7664 11.942 56.1707 11.942H55.8318V10.1241H66.246C68.0125 10.1241 69.5119 10.3809 70.7444 10.8944C71.9768 11.4079 72.9114 12.1371 73.5482 13.082C74.2055 14.0269 74.5341 15.1361 74.5341 16.4096C74.5341 17.5599 74.2671 18.5869 73.733 19.4907C73.199 20.374 72.4184 21.0929 71.3914 21.6475C70.3644 22.2021 69.1011 22.5615 67.6016 22.7259C67.4373 22.7669 67.2524 22.7978 67.047 22.8183C66.8416 22.8388 66.626 22.8594 66.4 22.8799C66.1946 22.9005 65.9892 22.9107 65.7838 22.9107H62.5178V20.8464H65.4141C66.3384 20.8464 67.0984 20.6718 67.6941 20.3226C68.2898 19.9529 68.7211 19.4393 68.9881 18.782C69.2757 18.1042 69.4195 17.3031 69.4195 16.3788C69.4195 15.5161 69.2757 14.7766 68.9881 14.1604C68.7006 13.5442 68.2692 13.0717 67.6941 12.7431C67.1189 12.4144 66.4 12.2501 65.5373 12.2501H63.1648V29.874ZM87.7796 22.5102L87.7488 24.2356C86.9477 24.3383 86.2288 24.4616 85.592 24.6053C84.9553 24.7491 84.4007 24.934 83.9282 25.1599C83.4763 25.3653 83.0963 25.6118 82.7882 25.8994C82.5006 26.1664 82.2747 26.4745 82.1104 26.8237C81.9666 27.1729 81.8947 27.5529 81.8947 27.9637C81.8947 28.4362 81.9871 28.847 82.172 29.1962C82.3569 29.5248 82.6136 29.7816 82.9423 29.9665C83.2709 30.1308 83.6509 30.213 84.0823 30.213C84.6369 30.213 85.1401 30.0692 85.592 29.7816C86.0439 29.494 86.4445 29.0935 86.7937 28.58C87.1428 28.0459 87.4407 27.4194 87.6872 26.7005L87.7488 28.7956C87.4407 29.5351 87.0401 30.1719 86.5472 30.7059C86.0747 31.2195 85.4996 31.62 84.8217 31.9076C84.1439 32.1746 83.3736 32.3081 82.5109 32.3081C81.5044 32.3081 80.6212 32.1541 79.8612 31.8459C79.1012 31.5173 78.5055 31.0449 78.0741 30.4286C77.6633 29.7919 77.4579 29.0319 77.4579 28.1486C77.4579 27.2859 77.6736 26.5464 78.1049 25.9302C78.5568 25.314 79.2141 24.7902 80.0768 24.3589C80.9395 23.907 82.0077 23.5372 83.2812 23.2497C84.5753 22.9415 86.0747 22.6951 87.7796 22.5102ZM87.3791 32V28.8881H87.0401V20.7848C87.0401 20.1069 86.9374 19.5729 86.732 19.1826C86.5472 18.7718 86.2699 18.4842 85.9001 18.3199C85.5304 18.135 85.0682 18.0426 84.5136 18.0426C83.6715 18.0426 82.9834 18.2172 82.4493 18.5664C81.9152 18.9156 81.4941 19.3469 81.186 19.8604C81.0628 19.6345 81.0012 19.4188 81.0012 19.2134C81.0012 19.008 81.0525 18.8231 81.1552 18.6588C81.2785 18.4945 81.4325 18.3507 81.6174 18.2274C81.8023 18.1042 82.0282 18.0118 82.2952 17.9501V21.1853H78.5055V17.9193C78.8136 17.6934 79.2552 17.4264 79.8303 17.1182C80.4055 16.7896 81.1244 16.5123 81.9871 16.2863C82.8498 16.0604 83.8461 15.9474 84.9758 15.9474C85.9001 15.9474 86.7628 16.0501 87.5639 16.2555C88.365 16.4404 89.0634 16.7382 89.6591 17.1491C90.2753 17.5599 90.7477 18.1042 91.0764 18.782C91.4256 19.4393 91.6002 20.2507 91.6002 21.2161V29.227C91.6002 29.4735 91.6721 29.6686 91.8159 29.8124C91.9802 29.9357 92.1959 30.0281 92.4629 30.0897C92.7505 30.1513 93.0791 30.1924 93.4488 30.213L93.5413 30.2438V32H87.3791ZM103.26 38.8709H94.0784V37.1763H94.14C94.5097 37.1763 94.8384 37.1455 95.126 37.0838C95.4135 37.0222 95.6395 36.9195 95.8038 36.7757C95.9681 36.6319 96.0503 36.4368 96.0503 36.1903V19.2134C96.0503 18.9669 95.9887 18.782 95.8654 18.6588C95.7422 18.5356 95.5573 18.4329 95.3108 18.3507C95.0643 18.248 94.746 18.1556 94.3557 18.0734L94.0784 18.0118V16.2555H100.364V20.261L100.703 20.415V36.8682C100.703 36.9298 100.816 36.9811 101.042 37.0222C101.288 37.0838 101.565 37.1249 101.874 37.1455C102.182 37.166 102.459 37.1763 102.705 37.1763H103.26V38.8709ZM105.386 32.3081C104.585 32.3081 103.866 32.2054 103.229 32C102.593 31.7946 102.007 31.4762 101.473 31.0449C100.96 30.6135 100.477 30.0589 100.025 29.3811L100.087 26.1151C100.456 26.9162 100.836 27.6043 101.227 28.1794C101.637 28.734 102.1 29.1654 102.613 29.4735C103.127 29.7611 103.702 29.9048 104.338 29.9048C104.934 29.9048 105.458 29.7713 105.91 29.5043C106.362 29.2167 106.731 28.8162 107.019 28.3027C107.307 27.7686 107.522 27.1421 107.666 26.4232C107.81 25.7043 107.882 24.8929 107.882 23.9891C107.882 23.0853 107.81 22.2945 107.666 21.6167C107.543 20.9183 107.337 20.3226 107.05 19.8296C106.762 19.3366 106.403 18.9669 105.971 18.7204C105.561 18.4739 105.078 18.3507 104.523 18.3507C103.887 18.3507 103.301 18.515 102.767 18.8437C102.254 19.1518 101.771 19.6242 101.319 20.261C100.888 20.8772 100.477 21.6167 100.087 22.4794L100.025 19.6139C100.538 18.7923 101.062 18.1145 101.596 17.5804C102.13 17.0258 102.726 16.615 103.383 16.348C104.041 16.0809 104.801 15.9474 105.663 15.9474C107.081 15.9474 108.313 16.2863 109.361 16.9642C110.429 17.6215 111.25 18.5561 111.826 19.768C112.421 20.9594 112.719 22.3664 112.719 23.9891C112.719 25.6118 112.411 27.0497 111.795 28.3027C111.179 29.5557 110.316 30.5416 109.207 31.2605C108.118 31.9589 106.844 32.3081 105.386 32.3081ZM118.301 13.6674C117.5 13.6674 116.853 13.462 116.36 13.0512C115.887 12.6198 115.651 12.0447 115.651 11.3258C115.651 10.6068 115.887 10.042 116.36 9.63115C116.853 9.22034 117.5 9.01493 118.301 9.01493C119.102 9.01493 119.739 9.22034 120.211 9.63115C120.704 10.042 120.951 10.6068 120.951 11.3258C120.951 12.0447 120.704 12.6198 120.211 13.0512C119.739 13.462 119.102 13.6674 118.301 13.6674ZM120.735 16.2555V29.3194C120.735 29.7097 120.92 29.9767 121.289 30.1205C121.659 30.2438 122.111 30.3054 122.645 30.3054H122.676V32H114.08V30.3054H114.141C114.696 30.3054 115.148 30.2438 115.497 30.1205C115.867 29.9767 116.052 29.7097 116.052 29.3194V19.2134C116.052 18.8437 115.918 18.5972 115.651 18.4739C115.384 18.3301 114.953 18.1966 114.357 18.0734L114.08 18.0118V16.2555H120.735ZM140.402 29.227C140.402 29.5967 140.566 29.8432 140.895 29.9665C141.244 30.0897 141.706 30.1719 142.282 30.213L142.374 30.2438V32H136.058V28.4259L135.75 28.5492V12.2809C135.75 12.0344 135.688 11.8496 135.565 11.7263C135.441 11.5825 135.246 11.4695 134.979 11.3874C134.712 11.3052 134.373 11.2231 133.963 11.1409L133.685 11.0793V9.32304H140.402V29.227ZM131.066 15.9474C131.97 15.9474 132.761 16.0809 133.439 16.348C134.137 16.615 134.753 17.0361 135.287 17.6112C135.842 18.1658 136.335 18.8745 136.766 19.7372L136.674 22.5718C136.243 21.6064 135.801 20.8156 135.349 20.1994C134.897 19.5626 134.404 19.1004 133.87 18.8129C133.357 18.5047 132.781 18.3507 132.145 18.3507C131.549 18.3507 131.025 18.4945 130.573 18.782C130.121 19.0491 129.741 19.4393 129.433 19.9529C129.146 20.4664 128.93 21.0929 128.786 21.8323C128.642 22.5513 128.571 23.3729 128.571 24.2972C128.571 25.1599 128.642 25.9405 128.786 26.6389C128.93 27.3373 129.146 27.9329 129.433 28.4259C129.721 28.9189 130.07 29.2886 130.481 29.5351C130.912 29.7816 131.405 29.9048 131.96 29.9048C132.638 29.9048 133.233 29.7405 133.747 29.4119C134.26 29.0627 134.753 28.5492 135.226 27.8713C135.698 27.1935 136.181 26.341 136.674 25.314L136.736 28.1178C136.222 29.0421 135.688 29.8227 135.133 30.4594C134.579 31.0757 133.963 31.5378 133.285 31.8459C132.607 32.1541 131.795 32.3081 130.851 32.3081C129.433 32.3081 128.191 31.9795 127.122 31.3222C126.054 30.6443 125.222 29.7097 124.627 28.5183C124.031 27.3064 123.733 25.8994 123.733 24.2972C123.733 22.6334 124.041 21.1853 124.658 19.9529C125.274 18.6999 126.137 17.7242 127.246 17.0258C128.355 16.3069 129.628 15.9474 131.066 15.9474ZM159.491 30.0897C160.292 30.0897 160.97 29.9767 161.524 29.7508C162.099 29.5248 162.541 29.1757 162.849 28.7032C163.157 28.2308 163.311 27.6351 163.311 26.9162C163.311 26.2794 163.167 25.7453 162.88 25.314C162.592 24.8826 162.181 24.5232 161.647 24.2356C161.134 23.948 160.528 23.6913 159.83 23.4653C159.131 23.2394 158.381 23.0032 157.58 22.7567C156.779 22.5307 155.988 22.2637 155.208 21.9556C154.427 21.6269 153.719 21.2059 153.082 20.6923C152.466 20.1788 151.973 19.5421 151.603 18.782C151.233 18.022 151.048 17.0874 151.048 15.9782C151.048 14.6842 151.367 13.5852 152.004 12.6815C152.661 11.7571 153.524 11.0485 154.592 10.5555C155.66 10.0625 156.831 9.81602 158.104 9.81602C159.172 9.81602 160.127 9.9598 160.97 10.2474C161.832 10.5349 162.592 11.0279 163.25 11.7263C163.907 12.4247 164.461 13.3798 164.913 14.5917L163.496 14.4685L164.051 10.1241H166.115V15.8858H163.743C163.476 15.0642 163.085 14.3658 162.572 13.7906C162.079 13.2155 161.493 12.7739 160.816 12.4658C160.158 12.1577 159.439 12.0036 158.659 12.0036C157.899 12.0036 157.262 12.1269 156.748 12.3733C156.235 12.5993 155.845 12.9279 155.578 13.3593C155.311 13.7701 155.177 14.2734 155.177 14.869C155.177 15.4647 155.321 15.9577 155.608 16.348C155.896 16.7382 156.286 17.0669 156.779 17.3339C157.293 17.5804 157.878 17.8064 158.535 18.0118C159.213 18.1966 159.922 18.3918 160.661 18.5972C161.565 18.8231 162.418 19.1004 163.219 19.4291C164.04 19.7577 164.78 20.1788 165.437 20.6923C166.094 21.1853 166.608 21.8118 166.978 22.5718C167.368 23.3318 167.563 24.2767 167.563 25.4064C167.563 26.8032 167.234 28.0254 166.577 29.0729C165.94 30.1205 165.037 30.9216 163.866 31.4762C162.716 32.0308 161.37 32.3081 159.83 32.3081C158.638 32.3081 157.508 32.1232 156.44 31.7535C155.372 31.3838 154.417 30.7881 153.575 29.9665C152.733 29.1243 152.075 28.0048 151.603 26.6081L153.174 26.9162L152.62 32H150.432V25.1599H152.897C153.267 26.1664 153.78 27.0394 154.438 27.7789C155.095 28.5183 155.855 29.0935 156.718 29.5043C157.601 29.8946 158.525 30.0897 159.491 30.0897ZM168.122 18.2583V16.4096H168.245C168.759 16.4096 169.201 16.3685 169.57 16.2863C169.94 16.2042 170.217 16.0604 170.402 15.855C170.608 15.6496 170.71 15.3517 170.71 14.9615L173.422 16.2555H179.307V18.2583H168.122ZM175.147 26.6389C175.147 27.481 175.24 28.1486 175.424 28.6416C175.609 29.1346 175.887 29.494 176.256 29.72C176.626 29.9254 177.057 30.0281 177.55 30.0281C177.961 30.0281 178.341 29.987 178.69 29.9048C179.06 29.8021 179.348 29.72 179.553 29.6584V31.7843C179.389 31.8665 179.153 31.9486 178.844 32.0308C178.536 32.113 178.187 32.1746 177.797 32.2157C177.407 32.2773 176.975 32.3081 176.503 32.3081C175.394 32.3081 174.377 32.1438 173.452 31.8151C172.549 31.4659 171.819 30.8805 171.265 30.0589C170.731 29.2373 170.464 28.1178 170.464 26.7005V16.7793L170.71 16.5636L170.741 11.9728H175.147V26.6389ZM197.516 24.1124C197.516 25.7145 197.157 27.1421 196.438 28.3951C195.739 29.6275 194.733 30.593 193.418 31.2913C192.124 31.9692 190.604 32.3081 188.858 32.3081C187.133 32.3081 185.613 31.9692 184.298 31.2913C183.004 30.593 181.997 29.6275 181.279 28.3951C180.56 27.1421 180.2 25.7145 180.2 24.1124C180.2 22.921 180.406 21.8221 180.816 20.8156C181.227 19.8091 181.813 18.9464 182.573 18.2274C183.353 17.488 184.267 16.9231 185.315 16.5328C186.383 16.1426 187.564 15.9474 188.858 15.9474C190.173 15.9474 191.354 16.1426 192.401 16.5328C193.469 16.9231 194.384 17.488 195.144 18.2274C195.924 18.9464 196.51 19.8091 196.9 20.8156C197.311 21.8221 197.516 22.921 197.516 24.1124ZM185.038 24.1124C185.038 25.4064 185.181 26.5156 185.469 27.44C185.777 28.3438 186.219 29.0319 186.794 29.5043C187.369 29.9767 188.057 30.213 188.858 30.213C189.68 30.213 190.368 29.9767 190.922 29.5043C191.498 29.0319 191.939 28.3438 192.247 27.44C192.555 26.5156 192.709 25.4064 192.709 24.1124C192.709 22.8183 192.555 21.7296 192.247 20.8464C191.939 19.9426 191.498 19.2545 190.922 18.782C190.368 18.3096 189.68 18.0734 188.858 18.0734C188.057 18.0734 187.369 18.3096 186.794 18.782C186.219 19.2545 185.777 19.9426 185.469 20.8464C185.181 21.7296 185.038 22.8183 185.038 24.1124ZM208.39 30.1205C209.191 30.1205 209.879 29.9562 210.455 29.6275C211.03 29.2784 211.523 28.8573 211.934 28.3643C212.365 27.8508 212.724 27.3578 213.012 26.8854L214.676 28.1794C214.244 28.96 213.71 29.6686 213.074 30.3054C212.457 30.9216 211.718 31.4146 210.855 31.7843C209.992 32.1335 208.955 32.3081 207.743 32.3081C206.059 32.3081 204.57 31.9692 203.276 31.2913C201.982 30.6135 200.965 29.6686 200.225 28.4567C199.486 27.2243 199.116 25.7762 199.116 24.1124C199.116 22.4486 199.486 21.0107 200.225 19.7988C200.985 18.5664 202.023 17.6215 203.337 16.9642C204.672 16.2863 206.233 15.9474 208.02 15.9474C209.15 15.9474 210.136 16.0604 210.978 16.2863C211.841 16.4918 212.55 16.7485 213.104 17.0566C213.679 17.3442 214.09 17.601 214.337 17.8269V21.8323H210.578V18.0426C210.845 18.0837 211.061 18.1658 211.225 18.2891C211.389 18.3918 211.512 18.5356 211.595 18.7204C211.697 18.8847 211.749 19.0696 211.749 19.275C211.749 19.4599 211.697 19.6345 211.595 19.7988C211.307 19.3058 210.855 18.895 210.239 18.5664C209.643 18.2377 208.976 18.0734 208.236 18.0734C207.291 18.0734 206.5 18.3199 205.864 18.8129C205.227 19.3058 204.744 20.0145 204.416 20.9388C204.107 21.8426 203.953 22.9005 203.953 24.1124C203.953 25.0367 204.046 25.8686 204.231 26.6081C204.436 27.3475 204.724 27.9843 205.093 28.5183C205.484 29.0319 205.956 29.4324 206.511 29.72C207.065 29.987 207.692 30.1205 208.39 30.1205ZM234.965 32H225.937V30.3054H226.03C226.235 30.3054 226.471 30.2951 226.738 30.2746C227.005 30.254 227.231 30.2232 227.416 30.1821C227.601 30.1205 227.693 30.0589 227.693 29.9973L223.133 23.9891V23.4961L228.618 18.5047C228.618 18.3404 228.484 18.2274 228.217 18.1658C227.95 18.0837 227.632 18.0323 227.262 18.0118C226.913 17.9707 226.595 17.9501 226.307 17.9501H226.122V16.2555H233.856V17.9501H233.825C233.414 17.9501 233.024 18.0015 232.654 18.1042C232.284 18.2069 231.925 18.361 231.576 18.5664C231.247 18.7718 230.918 19.0183 230.59 19.3058L225.845 23.6502L226.615 21.6167L232.408 29.227C232.634 29.494 232.88 29.7097 233.147 29.874C233.414 30.0384 233.691 30.1513 233.979 30.213C234.287 30.2746 234.595 30.3054 234.903 30.3054H234.965V32ZM222.456 9.32304V29.9973C222.456 30.0589 222.548 30.1205 222.733 30.1821C222.918 30.2232 223.144 30.254 223.411 30.2746C223.678 30.2951 223.914 30.3054 224.119 30.3054H224.181V32H215.8V30.3054H215.862C216.232 30.3054 216.56 30.2746 216.848 30.213C217.136 30.1513 217.361 30.0486 217.526 29.9048C217.69 29.7611 217.772 29.5659 217.772 29.3194V12.2809C217.772 12.0344 217.711 11.8496 217.587 11.7263C217.485 11.5825 217.31 11.4695 217.064 11.3874C216.817 11.2847 216.488 11.2025 216.078 11.1409L215.8 11.0793V9.32304H222.456Z" fill="#9FA3A7"/>
</svg>
