<svg width="18" height="18" viewBox="0 0 18 18" fill="none" xmlns="http://www.w3.org/2000/svg">
<rect x="3" y="1.5" width="10" height="15" rx="2" fill="#7B8184"/>
<path d="M10.8839 7.63388C11.372 7.14573 11.372 6.35427 10.8839 5.86612C10.3957 5.37796 9.60427 5.37796 9.11612 5.86612L6.86612 8.11612C6.6317 8.35054 6.5 8.66848 6.5 9C6.5 9.33152 6.6317 9.64946 6.86612 9.88388L9.11612 12.1339C9.60427 12.622 10.3957 12.622 10.8839 12.1339C11.372 11.6457 11.372 10.8543 10.8839 10.3661L10.7678 10.25H14.3125C15.0029 10.25 15.5625 9.69036 15.5625 9C15.5625 8.30964 15.0029 7.75 14.3125 7.75H10.7678L10.8839 7.63388Z" fill="#7B8184" stroke="#EEF0F2" stroke-linecap="round" stroke-linejoin="round"/>
</svg>
