<svg width="18" height="18" viewBox="0 0 18 18" fill="none" xmlns="http://www.w3.org/2000/svg">
<path d="M11.8125 4.5C11.8125 5.24592 11.5162 5.96129 10.9887 6.48874C10.4613 7.01618 9.7459 7.3125 8.99998 7.3125C8.25406 7.3125 7.53869 7.01618 7.01124 6.48874C6.4838 5.96129 6.18748 5.24592 6.18748 4.5C6.18748 3.75408 6.4838 3.03871 7.01124 2.51126C7.53869 1.98382 8.25406 1.6875 8.99998 1.6875C9.7459 1.6875 10.4613 1.98382 10.9887 2.51126C11.5162 3.03871 11.8125 3.75408 11.8125 4.5ZM4.86582 15.8582C3.31337 15.5296 2.2786 13.987 3.01219 12.5798C3.28161 12.0631 3.63207 11.5867 4.05512 11.1705C5.10724 10.1354 7.52405 9.55535 8.99998 9.55535C10.4759 9.55535 12.8927 10.1354 13.9448 11.1705C14.3676 11.5864 14.7179 12.0624 14.9872 12.5788C15.7214 13.9863 14.6866 15.5313 13.1336 15.8603C11.7131 16.1612 10.1769 16.3141 8.99998 16.3125C7.79483 16.3125 6.26588 16.1546 4.86582 15.8582Z" fill="#7B8184"/>
</svg>
