<svg width="18" height="18" viewBox="0 0 18 18" fill="none" xmlns="http://www.w3.org/2000/svg">
<path d="M5.94005 4.74745C5.7801 4.59841 5.56855 4.51727 5.34996 4.52113C5.13137 4.52498 4.92282 4.61354 4.76823 4.76812C4.61364 4.92271 4.52509 5.13127 4.52123 5.34986C4.51737 5.56845 4.59851 5.78 4.74755 5.93995L7.80755 8.99995L4.74755 12.0599C4.66465 12.1372 4.59816 12.2303 4.55205 12.3338C4.50593 12.4373 4.48113 12.5491 4.47914 12.6624C4.47714 12.7757 4.49798 12.8882 4.54041 12.9932C4.58285 13.0983 4.64601 13.1937 4.72613 13.2739C4.80625 13.354 4.90169 13.4172 5.00675 13.4596C5.11182 13.502 5.22435 13.5229 5.33764 13.5209C5.45093 13.5189 5.56266 13.4941 5.66616 13.448C5.76966 13.4018 5.86281 13.3353 5.94005 13.2524L9.00005 10.1924L12.0601 13.2524C12.1373 13.3353 12.2304 13.4018 12.3339 13.448C12.4374 13.4941 12.5492 13.5189 12.6625 13.5209C12.7758 13.5229 12.8883 13.502 12.9933 13.4596C13.0984 13.4172 13.1938 13.354 13.274 13.2739C13.3541 13.1937 13.4173 13.0983 13.4597 12.9932C13.5021 12.8882 13.523 12.7757 13.521 12.6624C13.519 12.5491 13.4942 12.4373 13.4481 12.3338C13.4019 12.2303 13.3354 12.1372 13.2526 12.0599L10.1926 8.99995L13.2526 5.93995C13.4016 5.78 13.4827 5.56845 13.4789 5.34986C13.475 5.13127 13.3865 4.92271 13.2319 4.76812C13.0773 4.61354 12.8687 4.52498 12.6501 4.52113C12.4315 4.51727 12.22 4.59841 12.0601 4.74745L9.00005 7.80745L5.94005 4.74745Z" fill="#4E5154"/>
</svg>
