<svg width="238" height="195" viewBox="0 0 238 195" fill="none" xmlns="http://www.w3.org/2000/svg">
<path d="M61.2889 18.279C40.5225 31.7636 46.5681 55.0247 52.1868 64.9696C56.3671 41.1017 84.2689 30.1904 97.6973 27.7182L94.1576 22.83C102.653 21.2119 114.328 24.2909 119.104 26.0326C111.969 31.2018 97.967 41.1692 99.0458 39.6859C100.125 38.2025 99.4953 33.674 99.0458 31.5951C91.1798 34.1796 73.9306 43.057 67.8625 57.8901C61.7945 72.7233 67.3569 83.8481 70.8966 87.5564L83.5385 61.0927H99.0458L71.7394 121.774H87.4153L121.464 46.9339H136.971L103.428 121.774H119.104L161.244 27.7182H176.751C168.93 22.5941 153.715 20.0769 147.085 19.4589C124.498 7.65981 87.2468 1.42316 61.2889 18.279Z" fill="#F50027"/>
<path d="M134.947 121.437L173.21 37.1576C181.638 45.7541 198.325 66.3181 190.066 86.8822C183.458 103.334 164.276 109.694 155.511 110.817L150.792 121.437H134.947Z" fill="#940015"/>
<path d="M14.4742 167.303L20.6369 166.614L25.9482 176.912C26.1374 177.237 26.3401 177.48 26.5563 177.642C26.7725 177.804 27.0158 177.912 27.2861 177.967C27.5834 178.021 27.9078 178.048 28.2592 178.048H28.5835V180.359H20.5153L14.4742 167.303ZM11.028 177.642C11.028 177.723 11.0955 177.791 11.2307 177.845C11.3929 177.872 11.5956 177.912 11.8388 177.967C12.0821 177.994 12.3524 178.021 12.6497 178.048C12.947 178.048 13.2444 178.048 13.5417 178.048H13.9877V180.359H1.41904V178.048H1.82448C2.60833 178.048 3.25703 177.953 3.77059 177.764C4.31118 177.575 4.58147 177.196 4.58147 176.629V155.302C4.58147 154.735 4.31118 154.356 3.77059 154.167C3.25703 153.978 2.60833 153.883 1.82448 153.883H1.41904V151.572H15.0824C17.4069 151.572 19.38 151.91 21.0018 152.586C22.6235 153.262 23.8669 154.221 24.7318 155.465C25.5968 156.708 26.0292 158.154 26.0292 159.803C26.0292 161.344 25.6643 162.695 24.9346 163.857C24.2318 165.02 23.1912 165.966 21.8127 166.695C20.4342 167.425 18.7584 167.898 16.7852 168.114C16.569 168.141 16.3257 168.168 16.0554 168.195C15.8122 168.222 15.5554 168.25 15.2851 168.277C15.0148 168.304 14.7445 168.317 14.4742 168.317H10.1765V165.682H13.9877C15.231 165.682 16.2311 165.452 16.9879 164.992C17.7718 164.533 18.3529 163.857 18.7313 162.965C19.1097 162.073 19.2989 161.019 19.2989 159.803C19.2989 158.641 19.1097 157.654 18.7313 156.843C18.3529 156.005 17.7853 155.37 17.0285 154.938C16.2717 154.478 15.3256 154.248 14.1904 154.248H11.028V177.642ZM43.3796 167.871L43.3391 170.06C42.2849 170.196 41.3389 170.358 40.501 170.547C39.6631 170.736 38.9333 170.979 38.3116 171.277C37.69 171.574 37.1764 171.912 36.771 172.29C36.3926 172.642 36.1087 173.047 35.9195 173.507C35.7303 173.966 35.6357 174.48 35.6357 175.047C35.6357 175.696 35.7439 176.25 35.9601 176.71C36.2034 177.142 36.5412 177.48 36.9737 177.723C37.4062 177.94 37.9062 178.048 38.4738 178.048C39.2306 178.048 39.8929 177.858 40.4605 177.48C41.0551 177.102 41.5822 176.575 42.0417 175.899C42.5012 175.196 42.9066 174.385 43.258 173.466L43.3391 176.061C42.9607 177.034 42.4471 177.872 41.7984 178.575C41.1497 179.277 40.3794 179.818 39.4874 180.196C38.5954 180.575 37.5683 180.764 36.4061 180.764C35.1087 180.764 33.9599 180.561 32.9598 180.156C31.9597 179.723 31.1759 179.102 30.6083 178.291C30.0677 177.453 29.7974 176.453 29.7974 175.291C29.7974 174.155 30.0812 173.182 30.6488 172.371C31.2164 171.561 32.0679 170.871 33.2031 170.304C34.3654 169.709 35.7844 169.223 37.4602 168.844C39.1631 168.439 41.1362 168.114 43.3796 167.871ZM42.812 180.359V176.264H42.366V165.52C42.366 164.628 42.2444 163.911 42.0011 163.371C41.7579 162.83 41.3795 162.452 40.8659 162.235C40.3794 161.992 39.7712 161.871 39.0414 161.871C37.9603 161.871 37.0548 162.1 36.325 162.56C35.6222 163.019 35.0681 163.573 34.6627 164.222C34.5005 163.925 34.4194 163.655 34.4194 163.411C34.4464 163.141 34.5275 162.898 34.6627 162.681C34.7978 162.438 34.987 162.249 35.2303 162.114C35.5006 161.952 35.7979 161.83 36.1223 161.749V166.087H31.1759V161.789C31.5543 161.492 32.1219 161.141 32.8787 160.735C33.6626 160.33 34.6221 159.979 35.7574 159.681C36.8926 159.357 38.19 159.195 39.6496 159.195C40.8929 159.195 42.0417 159.33 43.0958 159.6C44.15 159.843 45.069 160.249 45.8528 160.816C46.6637 161.357 47.2854 162.073 47.7178 162.965C48.1773 163.83 48.4071 164.884 48.4071 166.128V176.831C48.4071 177.129 48.5017 177.372 48.6909 177.561C48.8801 177.723 49.1504 177.845 49.5018 177.926C49.8802 178.007 50.3127 178.061 50.7992 178.088L50.9208 178.129V180.359H42.812ZM63.6305 189.4H51.5889V187.251H51.67C52.1566 187.251 52.589 187.211 52.9674 187.129C53.3459 187.048 53.6432 186.913 53.8594 186.724C54.0756 186.535 54.1838 186.278 54.1838 185.954V163.452C54.1838 163.1 54.1027 162.844 53.9405 162.681C53.7783 162.519 53.5351 162.384 53.2107 162.276C52.8864 162.141 52.4674 162.019 51.9538 161.911L51.5889 161.83V159.6H59.8599V164.83L60.3059 164.992V186.846C60.3059 186.927 60.4546 186.994 60.7519 187.048C61.0492 187.129 61.4006 187.184 61.806 187.211C62.2385 187.238 62.6169 187.251 62.9413 187.251H63.6305V189.4ZM66.4686 180.764C65.3874 180.764 64.4144 180.629 63.5494 180.359C62.7115 180.061 61.9412 179.615 61.2384 179.021C60.5357 178.399 59.8869 177.602 59.2923 176.629L59.495 172.655C59.9545 173.736 60.4546 174.655 60.9951 175.412C61.5357 176.169 62.1439 176.75 62.8196 177.156C63.4954 177.534 64.2522 177.723 65.0901 177.723C65.8739 177.723 66.5632 177.534 67.1578 177.156C67.7525 176.777 68.239 176.25 68.6174 175.574C68.9958 174.872 69.2796 174.034 69.4688 173.061C69.6851 172.088 69.7932 170.993 69.7932 169.777C69.7932 168.587 69.6986 167.533 69.5094 166.614C69.3202 165.695 69.0364 164.911 68.658 164.263C68.2796 163.614 67.8065 163.127 67.2389 162.803C66.6983 162.452 66.0631 162.276 65.3334 162.276C64.4684 162.276 63.6846 162.492 62.9818 162.925C62.3061 163.357 61.6709 163.992 61.0762 164.83C60.5086 165.641 59.968 166.614 59.4545 167.749L59.2923 164.222C59.968 163.087 60.6573 162.154 61.36 161.425C62.0898 160.668 62.8872 160.114 63.7521 159.762C64.6441 159.384 65.6712 159.195 66.8335 159.195C68.6985 159.195 70.3203 159.641 71.6988 160.533C73.1043 161.398 74.1855 162.627 74.9423 164.222C75.7261 165.79 76.1181 167.641 76.1181 169.777C76.1181 171.939 75.7126 173.845 74.9017 175.493C74.0909 177.142 72.9556 178.44 71.496 179.386C70.0635 180.305 68.3877 180.764 66.4686 180.764ZM83.4224 156.154C82.3953 156.154 81.5574 155.884 80.9087 155.343C80.26 154.802 79.9356 154.059 79.9356 153.113C79.9356 152.167 80.26 151.424 80.9087 150.883C81.5574 150.343 82.3953 150.072 83.4224 150.072C84.5036 150.072 85.355 150.343 85.9767 150.883C86.6254 151.424 86.9497 152.167 86.9497 153.113C86.9497 154.059 86.6254 154.802 85.9767 155.343C85.355 155.884 84.5036 156.154 83.4224 156.154ZM86.6254 159.6V176.912C86.6254 177.426 86.8687 177.777 87.3552 177.967C87.8417 178.129 88.4364 178.21 89.1391 178.21H89.2202V180.359H77.9084V178.21H77.949C78.6788 178.21 79.2869 178.129 79.7735 177.967C80.26 177.777 80.5032 177.426 80.5032 176.912V163.452C80.5032 162.965 80.3276 162.627 79.9762 162.438C79.6248 162.249 79.0572 162.073 78.2733 161.911L77.9084 161.83V159.6H86.6254ZM112.506 176.831C112.506 177.318 112.722 177.642 113.155 177.804C113.614 177.94 114.209 178.034 114.939 178.088L115.101 178.129V180.359H106.789V175.615L106.384 175.818V154.289C106.384 153.965 106.303 153.721 106.141 153.559C105.979 153.37 105.722 153.221 105.37 153.113C105.019 152.978 104.587 152.87 104.073 152.789L103.668 152.708V150.478H112.506V176.831ZM100.221 159.195C101.438 159.195 102.505 159.384 103.424 159.762C104.343 160.141 105.154 160.708 105.857 161.465C106.587 162.222 107.235 163.195 107.803 164.384L107.6 167.79C107.033 166.547 106.452 165.52 105.857 164.709C105.262 163.871 104.627 163.263 103.951 162.884C103.276 162.479 102.505 162.276 101.64 162.276C100.857 162.276 100.167 162.465 99.5726 162.844C98.978 163.195 98.478 163.722 98.0725 164.425C97.6941 165.101 97.3968 165.925 97.1806 166.898C96.9913 167.871 96.8967 168.966 96.8967 170.182C96.8967 171.371 96.9913 172.426 97.1806 173.345C97.3698 174.264 97.6536 175.047 98.032 175.696C98.4374 176.345 98.9104 176.831 99.451 177.156C100.019 177.48 100.667 177.642 101.397 177.642C102.289 177.642 103.073 177.426 103.749 176.993C104.424 176.561 105.073 175.899 105.695 175.007C106.316 174.115 106.952 172.993 107.6 171.642L107.763 175.088C107.087 176.331 106.371 177.385 105.614 178.25C104.884 179.088 104.06 179.723 103.141 180.156C102.249 180.561 101.181 180.764 99.9375 180.764C98.0725 180.764 96.4372 180.332 95.0317 179.467C93.6262 178.575 92.5315 177.331 91.7477 175.737C90.9638 174.142 90.5719 172.29 90.5719 170.182C90.5719 168.02 90.9773 166.114 91.7882 164.465C92.5991 162.817 93.7343 161.533 95.1939 160.614C96.6535 159.668 98.3293 159.195 100.221 159.195ZM137.505 177.926C138.559 177.926 139.465 177.777 140.221 177.48C140.978 177.183 141.559 176.723 141.965 176.102C142.397 175.48 142.613 174.682 142.613 173.709C142.613 172.872 142.411 172.169 142.005 171.601C141.627 171.034 141.086 170.561 140.384 170.182C139.708 169.777 138.91 169.425 137.991 169.128C137.072 168.831 136.072 168.52 134.991 168.195C133.937 167.898 132.896 167.533 131.869 167.101C130.869 166.668 129.95 166.128 129.112 165.479C128.301 164.803 127.653 163.965 127.166 162.965C126.68 161.965 126.436 160.735 126.436 159.276C126.436 157.573 126.855 156.127 127.693 154.938C128.558 153.721 129.693 152.789 131.099 152.14C132.504 151.491 134.045 151.167 135.721 151.167C137.154 151.167 138.424 151.37 139.532 151.775C140.667 152.154 141.654 152.802 142.492 153.721C143.357 154.613 144.087 155.843 144.681 157.411L142.857 157.167L143.546 151.572H146.181V159.154H143.222C142.843 158.046 142.316 157.113 141.64 156.357C140.992 155.573 140.221 154.978 139.329 154.573C138.464 154.167 137.505 153.965 136.451 153.965C135.451 153.965 134.599 154.127 133.897 154.451C133.221 154.748 132.694 155.181 132.315 155.748C131.964 156.289 131.788 156.965 131.788 157.776C131.788 158.559 131.977 159.208 132.356 159.722C132.761 160.235 133.288 160.668 133.937 161.019C134.613 161.371 135.383 161.681 136.248 161.952C137.14 162.195 138.086 162.452 139.086 162.722C140.248 163.019 141.357 163.384 142.411 163.817C143.492 164.249 144.465 164.803 145.33 165.479C146.195 166.128 146.871 166.952 147.357 167.952C147.871 168.952 148.127 170.196 148.127 171.682C148.127 173.52 147.695 175.128 146.83 176.507C145.992 177.885 144.803 178.94 143.262 179.669C141.749 180.399 139.978 180.764 137.951 180.764C136.383 180.764 134.897 180.521 133.491 180.034C132.086 179.548 130.829 178.764 129.72 177.683C128.639 176.602 127.788 175.155 127.166 173.345L129.153 173.831L128.423 180.359H125.666V171.358H128.788C129.274 172.736 129.937 173.926 130.775 174.926C131.64 175.899 132.653 176.642 133.815 177.156C134.978 177.669 136.208 177.926 137.505 177.926ZM148.905 162.154V159.803H149.026C149.702 159.803 150.283 159.749 150.77 159.641C151.256 159.533 151.634 159.343 151.905 159.073C152.175 158.776 152.31 158.37 152.31 157.857L155.675 159.6H163.541V162.154H148.905ZM158.067 173.426C158.067 174.534 158.189 175.412 158.432 176.061C158.703 176.71 159.068 177.169 159.527 177.439C160.014 177.71 160.595 177.845 161.27 177.845C161.811 177.845 162.311 177.791 162.771 177.683C163.23 177.548 163.595 177.453 163.865 177.399V180.075C163.649 180.183 163.338 180.291 162.933 180.399C162.527 180.507 162.068 180.588 161.554 180.642C161.041 180.724 160.473 180.764 159.851 180.764C158.392 180.764 157.054 180.548 155.838 180.115C154.648 179.656 153.702 178.886 152.999 177.804C152.297 176.723 151.945 175.264 151.945 173.426V160.249L152.27 159.965L152.391 153.965H158.067V173.426ZM187.503 169.979C187.503 172.088 187.03 173.966 186.084 175.615C185.138 177.237 183.814 178.507 182.111 179.426C180.408 180.318 178.408 180.764 176.111 180.764C173.84 180.764 171.84 180.318 170.11 179.426C168.407 178.507 167.083 177.237 166.137 175.615C165.191 173.966 164.718 172.088 164.718 169.979C164.718 168.385 164.988 166.925 165.529 165.601C166.069 164.276 166.84 163.141 167.84 162.195C168.867 161.249 170.07 160.519 171.448 160.006C172.854 159.465 174.408 159.195 176.111 159.195C177.84 159.195 179.395 159.465 180.773 160.006C182.179 160.519 183.381 161.249 184.382 162.195C185.409 163.141 186.179 164.276 186.693 165.601C187.233 166.925 187.503 168.385 187.503 169.979ZM171.043 169.979C171.043 171.709 171.245 173.182 171.651 174.399C172.056 175.615 172.637 176.548 173.394 177.196C174.151 177.818 175.056 178.129 176.111 178.129C177.192 178.129 178.097 177.818 178.827 177.196C179.584 176.548 180.165 175.615 180.57 174.399C180.976 173.182 181.179 171.709 181.179 169.979C181.179 168.222 180.976 166.749 180.57 165.56C180.165 164.371 179.584 163.465 178.827 162.844C178.097 162.222 177.192 161.911 176.111 161.911C175.056 161.911 174.151 162.222 173.394 162.844C172.637 163.465 172.056 164.371 171.651 165.56C171.245 166.749 171.043 168.222 171.043 169.979ZM201.813 178.007C202.867 178.007 203.772 177.791 204.529 177.358C205.313 176.899 205.975 176.345 206.516 175.696C207.056 175.02 207.529 174.358 207.935 173.709L210.043 175.372C209.449 176.399 208.746 177.331 207.935 178.169C207.124 178.98 206.151 179.615 205.016 180.075C203.88 180.534 202.529 180.764 200.961 180.764C198.745 180.764 196.772 180.318 195.042 179.426C193.339 178.534 192.001 177.277 191.028 175.656C190.082 174.034 189.609 172.142 189.609 169.979C189.609 167.763 190.096 165.857 191.069 164.263C192.042 162.668 193.407 161.425 195.164 160.533C196.92 159.641 198.975 159.195 201.326 159.195C202.786 159.195 204.07 159.343 205.178 159.641C206.286 159.911 207.205 160.235 207.935 160.614C208.692 160.992 209.246 161.344 209.597 161.668V166.898H204.651V161.871C204.975 161.925 205.245 162.033 205.462 162.195C205.705 162.33 205.881 162.506 205.989 162.722C206.124 162.938 206.192 163.182 206.192 163.452C206.192 163.695 206.124 163.925 205.989 164.141C205.61 163.492 205.029 162.965 204.245 162.56C203.462 162.127 202.57 161.911 201.569 161.911C200.353 161.911 199.326 162.235 198.488 162.884C197.65 163.533 197.015 164.465 196.583 165.682C196.15 166.898 195.934 168.331 195.934 169.979C195.934 171.223 196.069 172.344 196.339 173.345C196.61 174.318 196.988 175.155 197.475 175.858C197.988 176.561 198.61 177.102 199.34 177.48C200.069 177.831 200.894 178.007 201.813 178.007ZM236.662 180.359H224.864V178.21H224.945C225.215 178.21 225.513 178.196 225.837 178.169C226.188 178.142 226.486 178.102 226.729 178.048C226.972 177.967 227.094 177.885 227.094 177.804L221.093 169.777V169.169L228.391 162.519C228.391 162.303 228.216 162.154 227.864 162.073C227.54 161.965 227.148 161.884 226.688 161.83C226.229 161.776 225.797 161.749 225.391 161.749H225.148V159.6H235.162V161.749H235.081C234.595 161.749 234.108 161.83 233.622 161.992C233.135 162.127 232.662 162.33 232.202 162.6C231.743 162.844 231.31 163.168 230.905 163.573L224.661 169.25L225.675 166.655L233.338 176.791C233.635 177.142 233.946 177.426 234.27 177.642C234.622 177.831 234.986 177.98 235.365 178.088C235.77 178.169 236.176 178.21 236.581 178.21H236.662V180.359ZM220.201 150.478V177.764C220.201 177.872 220.323 177.967 220.566 178.048C220.81 178.102 221.107 178.142 221.458 178.169C221.81 178.196 222.121 178.21 222.391 178.21H222.512V180.359H211.484V178.21H211.566C212.052 178.21 212.485 178.169 212.863 178.088C213.241 178.007 213.539 177.872 213.755 177.683C213.971 177.494 214.079 177.237 214.079 176.912V154.289C214.079 153.965 213.998 153.721 213.836 153.559C213.674 153.37 213.431 153.221 213.106 153.113C212.782 152.978 212.363 152.87 211.849 152.789L211.484 152.708V150.478H220.201Z" fill="#313131"/>
</svg>
