<svg width="18" height="18" viewBox="0 0 18 18" fill="none" xmlns="http://www.w3.org/2000/svg">
<path d="M11.1429 11.8115C12.5403 11.646 13.9133 11.3163 15.2334 10.829C14.1154 9.59061 13.4976 7.98087 13.5001 6.3125V5.75C13.5001 4.55653 13.026 3.41193 12.1821 2.56802C11.3382 1.72411 10.1936 1.25 9.00011 1.25C7.80664 1.25 6.66205 1.72411 5.81813 2.56802C4.97422 3.41193 4.50011 4.55653 4.50011 5.75V6.3125C4.50238 7.98097 3.88435 9.59072 2.76611 10.829C4.06586 11.309 5.43611 11.6428 6.85736 11.8115M11.1429 11.8115C9.71935 11.9804 8.28087 11.9804 6.85736 11.8115H11.1429ZM11.1429 11.8115C11.2509 12.1489 11.2778 12.507 11.2213 12.8568C11.1648 13.2065 11.0265 13.538 10.8176 13.8242C10.6088 14.1104 10.3353 14.3432 10.0195 14.5037C9.70367 14.6642 9.3544 14.7479 9.00011 14.7479C8.64583 14.7479 8.29656 14.6642 7.98072 14.5037C7.66488 14.3432 7.39142 14.1104 7.18258 13.8242C6.97374 13.538 6.83544 13.2065 6.77892 12.8568C6.72241 12.507 6.74929 12.1489 6.85736 11.8115" fill="#E0E3E6"/>
</svg>
