<svg width="18" height="18" viewBox="0 0 18 18" fill="none" xmlns="http://www.w3.org/2000/svg">
<path fill-rule="evenodd" clip-rule="evenodd" d="M7.26202 1.63125C7.27595 1.4926 7.34085 1.36405 7.44415 1.27052C7.54745 1.177 7.68179 1.12514 7.82114 1.125H10.1791C10.3185 1.12514 10.4528 1.177 10.5561 1.27052C10.6594 1.36405 10.7243 1.4926 10.7383 1.63125L10.9475 3.7215C11.5476 3.94332 12.1053 4.26596 12.5968 4.6755L14.5126 3.81038C14.6399 3.75292 14.7839 3.74482 14.9168 3.78765C15.0496 3.83048 15.1618 3.92118 15.2315 4.04212L16.4094 6.08288C16.4793 6.20353 16.5019 6.34584 16.4728 6.4822C16.4437 6.61857 16.3649 6.73926 16.2519 6.82088L14.5453 8.04712C14.6531 8.6778 14.6531 9.3222 14.5453 9.95288L16.2508 11.1791C16.364 11.2606 16.4429 11.3812 16.4723 11.5176C16.5016 11.6539 16.4792 11.7963 16.4094 11.9171L15.2315 13.9579C15.1618 14.0788 15.0496 14.1695 14.9168 14.2124C14.7839 14.2552 14.6399 14.2471 14.5126 14.1896L12.5968 13.3256C12.1096 13.7306 11.5528 14.0558 10.9475 14.2785L10.7383 16.3688C10.7243 16.5074 10.6594 16.6359 10.5561 16.7295C10.4528 16.823 10.3185 16.8749 10.1791 16.875H7.82114C7.68179 16.8749 7.54745 16.823 7.44415 16.7295C7.34085 16.6359 7.27595 16.5074 7.26202 16.3688L7.05277 14.2785C6.4527 14.0567 5.89493 13.7341 5.40352 13.3245L3.48764 14.1896C3.36042 14.2471 3.21638 14.2552 3.08352 14.2124C2.95066 14.1695 2.83847 14.0788 2.76877 13.9579L1.59089 11.9171C1.52101 11.7965 1.49842 11.6542 1.52753 11.5178C1.55663 11.3814 1.63534 11.2607 1.74839 11.1791L3.45502 9.95288C3.34734 9.32219 3.34734 8.67781 3.45502 8.04712L1.74952 6.82088C1.63628 6.73943 1.55734 6.61881 1.52803 6.48243C1.49872 6.34606 1.52112 6.20366 1.59089 6.08288L2.76764 4.04212C2.83735 3.92118 2.94954 3.83048 3.0824 3.78765C3.21526 3.74482 3.3593 3.75292 3.48652 3.81038L5.40239 4.6755C5.88952 4.2705 6.44639 3.94425 7.05164 3.7215L7.26202 1.63125ZM7.06289 10.1441L7.03814 10.1025C6.74022 9.58543 6.65991 8.97118 6.81487 8.3949C6.96983 7.81861 7.34738 7.32748 7.86445 7.02956C8.38153 6.73164 8.99577 6.65133 9.57206 6.80629C10.1483 6.96126 10.6395 7.3388 10.9374 7.85588L10.9621 7.8975C11.2601 8.41457 11.3404 9.02882 11.1854 9.6051C11.0304 10.1814 10.6529 10.6725 10.1358 10.9704C9.61875 11.2684 9.00451 11.3487 8.42822 11.1937C7.85194 11.0387 7.36081 10.6612 7.06289 10.1441Z" fill="#7B8184"/>
</svg>
