<svg width="18" height="18" viewBox="0 0 18 18" fill="none" xmlns="http://www.w3.org/2000/svg">
<rect x="3" y="1.5" width="10" height="15" rx="2" fill="#7B8184"/>
<path d="M12.1786 10.3661C11.6905 10.8543 11.6905 11.6457 12.1786 12.1339C12.6668 12.622 13.4582 12.622 13.9464 12.1339L16.1964 9.88388C16.4308 9.64946 16.5625 9.33152 16.5625 9C16.5625 8.66848 16.4308 8.35054 16.1964 8.11612L13.9464 5.86612C13.4582 5.37796 12.6668 5.37796 12.1786 5.86612C11.6905 6.35427 11.6905 7.14573 12.1786 7.63388L12.2947 7.75L8.75 7.75C8.05964 7.75 7.5 8.30964 7.5 9C7.5 9.69036 8.05964 10.25 8.75 10.25L12.2947 10.25L12.1786 10.3661Z" fill="#7B8184" stroke="#EEF0F2" stroke-linecap="round" stroke-linejoin="round"/>
</svg>
