<svg width="190" height="34" viewBox="0 0 190 34" fill="none" xmlns="http://www.w3.org/2000/svg">
<path d="M5.26397 7.37614C0.991731 10.1503 2.23549 14.9358 3.3914 16.9817C4.25141 12.0714 9.99163 9.82666 12.7542 9.31806L12.026 8.31242C13.7737 7.97952 16.1757 8.61296 17.1582 8.97129C15.6902 10.0347 12.8097 12.0853 13.0317 11.7801C13.2536 11.475 13.1241 10.5433 13.0317 10.1156C11.4134 10.6474 7.86474 12.4737 6.61636 15.5253C5.36798 18.5769 6.51233 20.8656 7.24055 21.6285L9.84134 16.1842H13.0317L7.41394 28.668H10.6389L17.6437 13.2713H20.834L13.9333 28.668H17.1582L25.8276 9.31806H29.0179C27.4088 8.26387 24.2786 7.74603 22.9147 7.61888C18.2679 5.19147 10.6043 3.90841 5.26397 7.37614Z" fill="#E60000"/>
<path d="M20.4175 28.5981L28.2892 11.2595C30.0231 13.0281 33.4561 17.2587 31.7569 21.4893C30.3976 24.8738 26.4513 26.1823 24.6481 26.4135L23.6771 28.5981H20.4175Z" fill="#940015"/>
<path d="M52.1827 17.1826L55.896 16.7673L59.0718 22.8502C59.1858 23.0457 59.2998 23.1922 59.4138 23.29C59.5441 23.3877 59.6906 23.4528 59.8535 23.4854C60.0327 23.518 60.2281 23.5342 60.4398 23.5342H60.6597V25H55.8471L52.1827 17.1826ZM50.0818 23.29C50.0818 23.3388 50.1225 23.3795 50.2039 23.4121C50.3017 23.4284 50.4238 23.4528 50.5704 23.4854C50.717 23.5017 50.8798 23.518 51.059 23.5342C51.2381 23.5342 51.4173 23.5342 51.5964 23.5342H51.8651V25H44.2921V23.5342H44.5363C45.0249 23.5342 45.4239 23.4772 45.7334 23.3632C46.0428 23.2492 46.1975 23.0131 46.1975 22.6548V10.0004C46.1975 9.64213 46.0428 9.40598 45.7334 9.29197C45.4239 9.17797 45.0249 9.12097 44.5363 9.12097H44.2921V7.65521H52.5247C53.9253 7.65521 55.1142 7.86693 56.0914 8.29037C57.0686 8.69753 57.8177 9.27569 58.3389 10.0249C58.86 10.7577 59.1206 11.629 59.1206 12.6388C59.1206 13.5671 58.9089 14.3895 58.4855 15.1061C58.062 15.8064 57.4431 16.3765 56.6288 16.8162C55.8308 17.2559 54.8455 17.5409 53.6729 17.6712C53.5263 17.7038 53.3716 17.7282 53.2087 17.7445C53.0459 17.7608 52.8749 17.7771 52.6957 17.7934C52.5166 17.8096 52.3374 17.8178 52.1583 17.8178H49.5932V16.1322H51.8651C52.6143 16.1322 53.2169 15.9937 53.6729 15.7169C54.1452 15.44 54.4953 15.041 54.7234 14.5198C54.9514 13.9824 55.0654 13.3554 55.0654 12.6388C55.0654 11.9548 54.9432 11.3685 54.6989 10.8799C54.4709 10.3913 54.1289 10.0167 53.6729 9.75613C53.2332 9.49555 52.6713 9.36526 51.9873 9.36526H50.0818V23.29ZM69.5982 17.4758V18.8683C68.9467 18.9497 68.3686 19.0555 67.8637 19.1858C67.3751 19.2998 66.9435 19.4383 66.5689 19.6011C66.1944 19.764 65.8849 19.9594 65.6406 20.1874C65.4126 20.3992 65.2416 20.6434 65.1276 20.9203C65.0136 21.1972 64.9566 21.4985 64.9566 21.8242C64.9566 22.1825 65.0218 22.4919 65.152 22.7525C65.2986 23.0131 65.5022 23.2167 65.7628 23.3632C66.0234 23.4935 66.3247 23.5587 66.6667 23.5587C67.1227 23.5587 67.5217 23.4447 67.8637 23.2167C68.222 22.9887 68.5396 22.6629 68.8164 22.2395C69.0933 21.8161 69.3376 21.3193 69.5493 20.7493L69.5737 22.5082C69.3295 23.0782 69.0119 23.5668 68.621 23.974C68.2301 24.3811 67.766 24.6987 67.2285 24.9267C66.7074 25.1384 66.1048 25.2443 65.4208 25.2443C64.639 25.2443 63.9469 25.1221 63.3443 24.8779C62.7417 24.6173 62.2694 24.2427 61.9274 23.7541C61.5854 23.2492 61.4144 22.6466 61.4144 21.9463C61.4144 21.2623 61.5854 20.676 61.9274 20.1874C62.2857 19.6988 62.8068 19.2835 63.4909 18.9415C64.1749 18.5832 65.0218 18.2901 66.0315 18.0621C67.0575 17.8178 68.2464 17.6224 69.5982 17.4758ZM69.2806 25V22.5082H69.0119V16.1566C69.0119 15.6192 68.9304 15.1957 68.7676 14.8863C68.621 14.5606 68.4011 14.3325 68.108 14.2023C67.8148 14.0557 67.4484 13.9824 67.0087 13.9824C66.3572 13.9824 65.8116 14.1208 65.3719 14.3977C64.9485 14.6746 64.6227 15.0166 64.3947 15.4237C64.2807 15.2446 64.2237 15.0817 64.2237 14.9351C64.24 14.7723 64.2889 14.6257 64.3703 14.4954C64.4517 14.3488 64.5657 14.2267 64.7123 14.129C64.8752 14.0313 65.0625 13.958 65.2742 13.9091V16.4498H62.245V13.8602C62.4893 13.6648 62.8394 13.445 63.2954 13.2007C63.7514 12.9564 64.3215 12.7446 65.0055 12.5655C65.6895 12.3701 66.4794 12.2723 67.3751 12.2723C68.1243 12.2723 68.8083 12.3538 69.4272 12.5166C70.0623 12.6632 70.6161 12.9075 71.0884 13.2495C71.5769 13.5752 71.9515 14.0068 72.2121 14.5443C72.489 15.0654 72.6274 15.7006 72.6274 16.4498V22.7769C72.6274 22.9724 72.6844 23.1271 72.7984 23.2411C72.9287 23.3388 73.0997 23.4121 73.3114 23.461C73.5394 23.5098 73.8 23.5424 74.0932 23.5587L74.1665 23.5831V25H69.2806ZM81.8967 30.4477H74.5923V29.0553H74.6412C74.9343 29.0553 75.1949 29.0308 75.4229 28.982C75.6509 28.9494 75.8301 28.8761 75.9604 28.7621C76.0906 28.6481 76.1558 28.4852 76.1558 28.2735V14.9107C76.1558 14.7153 76.1069 14.5687 76.0092 14.471C75.9278 14.357 75.7812 14.2674 75.5695 14.2023C75.374 14.1371 75.1216 14.072 74.8122 14.0068L74.5923 13.958V12.5166H79.6003V15.7413L79.8446 15.8634V28.8354C79.8446 28.8843 79.9342 28.925 80.1133 28.9575C80.3088 28.9901 80.5286 29.0145 80.7729 29.0308C81.0335 29.0471 81.2615 29.0553 81.4569 29.0553H81.8967V30.4477ZM83.5823 25.2443C82.9471 25.2443 82.3771 25.1629 81.8722 25C81.3837 24.8534 80.9276 24.6173 80.5042 24.2916C80.097 23.9495 79.7062 23.5261 79.3316 23.0212L79.3804 20.3096C79.6573 20.9285 79.9586 21.4659 80.2843 21.9219C80.6101 22.3779 80.9765 22.7281 81.3837 22.9724C81.7908 23.2004 82.2468 23.3144 82.7517 23.3144C83.224 23.3144 83.6311 23.2085 83.9732 22.9968C84.3315 22.7688 84.6246 22.4512 84.8526 22.0441C85.0806 21.6206 85.2516 21.1239 85.3656 20.5539C85.4796 19.9839 85.5366 19.3487 85.5366 18.6484C85.5366 17.9481 85.4796 17.3292 85.3656 16.7918C85.2679 16.238 85.105 15.7739 84.877 15.3993C84.649 15.0084 84.3722 14.7153 84.0464 14.5198C83.7207 14.3244 83.3298 14.2267 82.8738 14.2267C82.369 14.2267 81.9048 14.357 81.4814 14.6176C81.0742 14.8618 80.6996 15.2283 80.3576 15.7169C80.0156 16.2055 79.6817 16.7918 79.356 17.4758L79.3316 15.1061C79.755 14.471 80.1703 13.9498 80.5775 13.5427C81.0009 13.1192 81.4651 12.8016 81.97 12.5899C82.4911 12.3782 83.0856 12.2723 83.7533 12.2723C84.8933 12.2723 85.8786 12.5411 86.7092 13.0785C87.5561 13.5997 88.2076 14.3407 88.6636 15.3016C89.1359 16.2462 89.372 17.3618 89.372 18.6484C89.372 19.935 89.1277 21.075 88.6391 22.0685C88.1506 23.0619 87.4665 23.8437 86.5871 24.4137C85.7239 24.9674 84.7223 25.2443 83.5823 25.2443ZM93.7976 10.489C93.1624 10.489 92.6494 10.3261 92.2586 10.0004C91.884 9.65841 91.6967 9.2024 91.6967 8.63238C91.6967 8.06237 91.884 7.6145 92.2586 7.28877C92.6494 6.96305 93.1624 6.80019 93.7976 6.80019C94.4328 6.80019 94.9376 6.96305 95.3122 7.28877C95.7031 7.6145 95.8985 8.06237 95.8985 8.63238C95.8985 9.2024 95.7031 9.65841 95.3122 10.0004C94.9376 10.3261 94.4328 10.489 93.7976 10.489ZM95.7275 12.5166V22.8258C95.7275 23.1515 95.8741 23.3632 96.1672 23.461C96.4604 23.5587 96.8268 23.6075 97.2666 23.6075H97.291V25H90.4752V23.6075H90.4997C90.9394 23.6075 91.3058 23.5587 91.599 23.461C91.8921 23.3632 92.0387 23.1515 92.0387 22.8258V14.9107C92.0387 14.6176 91.9247 14.4221 91.6967 14.3244C91.485 14.2104 91.1511 14.1045 90.6951 14.0068L90.4508 13.958V12.5166H95.7275ZM111.321 22.7769C111.321 23.0701 111.451 23.2655 111.712 23.3632C111.989 23.461 112.355 23.5261 112.811 23.5587L112.885 23.5831V25H107.877V22.1662L107.632 22.2639V9.43855C107.632 9.22683 107.583 9.07211 107.486 8.97439C107.388 8.86039 107.233 8.77081 107.022 8.70567C106.81 8.64053 106.541 8.57538 106.215 8.51024L105.996 8.46138V7.02005H111.321V22.7769ZM103.919 12.2723C104.636 12.2723 105.263 12.3782 105.8 12.5899C106.338 12.8016 106.818 13.1274 107.241 13.5671C107.665 13.9905 108.048 14.5361 108.39 15.2039L108.365 17.5735C108.023 16.808 107.665 16.181 107.29 15.6924C106.932 15.1876 106.549 14.8211 106.142 14.5931C105.735 14.3488 105.271 14.2267 104.75 14.2267C104.277 14.2267 103.862 14.3325 103.504 14.5443C103.162 14.756 102.869 15.0654 102.624 15.4726C102.396 15.8797 102.225 16.3765 102.111 16.9628C101.997 17.5328 101.94 18.1761 101.94 18.8927C101.94 19.5767 101.997 20.1956 102.111 20.7493C102.225 21.2867 102.396 21.7509 102.624 22.1418C102.852 22.5326 103.129 22.8258 103.455 23.0212C103.797 23.2167 104.188 23.3144 104.627 23.3144C105.149 23.3144 105.613 23.1841 106.02 22.9235C106.443 22.6466 106.842 22.2395 107.217 21.702C107.592 21.1646 107.974 20.4806 108.365 19.65L108.39 21.9708C107.982 22.6874 107.559 23.29 107.119 23.7785C106.696 24.2671 106.207 24.6336 105.654 24.8779C105.116 25.1221 104.481 25.2443 103.748 25.2443C102.624 25.2443 101.639 24.9837 100.792 24.4626C99.9452 23.9251 99.2856 23.1841 98.8133 22.2395C98.3573 21.2786 98.1293 20.163 98.1293 18.8927C98.1293 17.5898 98.3736 16.4416 98.8622 15.4482C99.3508 14.4547 100.035 13.6811 100.914 13.1274C101.794 12.5574 102.795 12.2723 103.919 12.2723ZM126.528 23.4365C127.163 23.4365 127.701 23.347 128.14 23.1678C128.58 22.9887 128.922 22.7199 129.166 22.3616C129.411 21.9871 129.533 21.5229 129.533 20.9692C129.533 20.4643 129.411 20.0409 129.166 19.6988C128.938 19.3568 128.621 19.0718 128.214 18.8438C127.807 18.6158 127.326 18.4122 126.772 18.2331C126.219 18.0539 125.624 17.8667 124.989 17.6712C124.354 17.4921 123.727 17.2803 123.108 17.0361C122.489 16.7755 121.927 16.4416 121.422 16.0345C120.934 15.6273 120.543 15.1224 120.25 14.5198C119.957 13.9172 119.81 13.1762 119.81 12.2968C119.81 11.2707 120.062 10.3994 120.567 9.68284C121.088 8.94996 121.773 8.38809 122.619 7.99722C123.466 7.60635 124.395 7.41092 125.404 7.41092C126.251 7.41092 127.009 7.52492 127.676 7.75293C128.344 7.98093 128.938 8.3718 129.46 8.92553C129.997 9.47926 130.445 10.2447 130.803 11.2219L129.655 11.1486L130.119 7.65521H131.78V12.2235H129.85C129.639 11.5883 129.329 11.0427 128.922 10.5867C128.531 10.1307 128.075 9.7887 127.554 9.56069C127.033 9.3164 126.463 9.19426 125.844 9.19426C125.258 9.19426 124.761 9.29197 124.354 9.48741C123.947 9.66656 123.629 9.91899 123.401 10.2447C123.189 10.5704 123.084 10.9694 123.084 11.4417C123.084 11.8978 123.198 12.2805 123.426 12.5899C123.67 12.8994 123.987 13.1599 124.378 13.3717C124.785 13.5671 125.25 13.7462 125.771 13.9091C126.308 14.0557 126.87 14.2104 127.456 14.3733C128.157 14.5524 128.833 14.7723 129.484 15.0329C130.135 15.2934 130.714 15.6192 131.218 16.01C131.74 16.4009 132.147 16.9058 132.44 17.5246C132.749 18.1272 132.904 18.8764 132.904 19.7721C132.904 20.8959 132.644 21.8731 132.122 22.7036C131.618 23.518 130.909 24.145 129.997 24.5847C129.085 25.0244 128.018 25.2443 126.797 25.2443C125.852 25.2443 124.948 25.0977 124.085 24.8046C123.238 24.5114 122.481 24.0391 121.813 23.3877C121.145 22.7199 120.624 21.8242 120.25 20.7004L121.52 20.8959L121.08 25H119.297V19.5767H121.325C121.601 20.3584 122.001 21.0425 122.522 21.6288C123.043 22.2151 123.645 22.6629 124.329 22.9724C125.03 23.2818 125.763 23.4365 126.528 23.4365ZM133.371 14.1534V12.6388H133.469C133.86 12.6388 134.202 12.6144 134.495 12.5655C134.788 12.5004 135.008 12.3863 135.155 12.2235C135.317 12.0606 135.399 11.8326 135.399 11.5395L137.646 12.5166H142.263V14.1534H133.371ZM138.941 20.7004C138.941 21.3682 139.014 21.8975 139.161 22.2883C139.324 22.6792 139.544 22.9642 139.821 23.1434C140.114 23.3062 140.464 23.3877 140.871 23.3877C141.197 23.3877 141.498 23.3551 141.775 23.29C142.052 23.2085 142.28 23.1515 142.459 23.1189V24.829C142.312 24.8941 142.117 24.9593 141.873 25.0244C141.645 25.0896 141.376 25.1384 141.066 25.171C140.757 25.2199 140.415 25.2443 140.04 25.2443C139.161 25.2443 138.355 25.114 137.622 24.8534C136.889 24.5766 136.303 24.1124 135.863 23.461C135.44 22.7932 135.228 21.8975 135.228 20.7737V12.9564L135.399 12.7854L135.423 9.12097H138.941V20.7004ZM156.725 18.7705C156.725 20.0409 156.44 21.1646 155.87 22.1418C155.3 23.1189 154.494 23.8844 153.452 24.4381C152.426 24.9756 151.228 25.2443 149.86 25.2443C148.476 25.2443 147.263 24.9756 146.22 24.4381C145.194 23.8844 144.396 23.1189 143.826 22.1418C143.273 21.1646 142.996 20.0409 142.996 18.7705C142.996 17.8096 143.151 16.9302 143.46 16.1322C143.786 15.3341 144.25 14.6501 144.852 14.0801C145.471 13.5101 146.196 13.0704 147.027 12.7609C147.874 12.4352 148.818 12.2723 149.86 12.2723C150.886 12.2723 151.815 12.4352 152.645 12.7609C153.492 13.0704 154.217 13.5101 154.82 14.0801C155.438 14.6501 155.911 15.3341 156.236 16.1322C156.562 16.9302 156.725 17.8096 156.725 18.7705ZM146.807 18.7705C146.807 19.764 146.929 20.6272 147.173 21.36C147.418 22.0766 147.768 22.6222 148.224 22.9968C148.68 23.3714 149.225 23.5587 149.86 23.5587C150.496 23.5587 151.041 23.3714 151.497 22.9968C151.953 22.6222 152.295 22.0766 152.523 21.36C152.768 20.6272 152.89 19.764 152.89 18.7705C152.89 17.7445 152.768 16.8813 152.523 16.181C152.295 15.4644 151.953 14.927 151.497 14.5687C151.041 14.1941 150.496 14.0068 149.86 14.0068C149.225 14.0068 148.68 14.1941 148.224 14.5687C147.768 14.927 147.418 15.4644 147.173 16.181C146.929 16.8813 146.807 17.7445 146.807 18.7705ZM165.323 23.4854C165.958 23.4854 166.503 23.3551 166.959 23.0945C167.415 22.8177 167.806 22.4756 168.132 22.0685C168.474 21.6613 168.759 21.2786 168.987 20.9203L170.331 21.9708C169.972 22.5896 169.549 23.1515 169.06 23.6564C168.572 24.145 167.977 24.5358 167.277 24.829C166.593 25.1059 165.77 25.2443 164.81 25.2443C163.474 25.2443 162.293 24.9756 161.267 24.4381C160.241 23.9007 159.435 23.1515 158.849 22.1906C158.279 21.2135 157.994 20.0734 157.994 18.7705C157.994 17.4351 158.287 16.2869 158.873 15.326C159.459 14.3651 160.282 13.616 161.341 13.0785C162.399 12.5411 163.637 12.2723 165.054 12.2723C165.95 12.2723 166.731 12.3619 167.399 12.5411C168.083 12.7202 168.645 12.9319 169.085 13.1762C169.541 13.4042 169.866 13.6078 170.062 13.787V16.9872H167.081V13.9824C167.293 14.015 167.464 14.0801 167.594 14.1778C167.725 14.2593 167.822 14.3733 167.888 14.5198C167.969 14.6501 168.002 14.7967 167.985 14.9596C167.985 15.1061 167.945 15.2527 167.863 15.3993C167.635 14.9921 167.285 14.6583 166.813 14.3977C166.34 14.1371 165.803 14.0068 165.2 14.0068C164.468 14.0068 163.849 14.2023 163.344 14.5931C162.839 14.984 162.456 15.5377 162.196 16.2543C161.935 16.9709 161.805 17.8096 161.805 18.7705C161.805 19.4871 161.878 20.1386 162.025 20.7249C162.187 21.2949 162.415 21.7916 162.709 22.2151C163.018 22.6222 163.393 22.9398 163.832 23.1678C164.272 23.3795 164.769 23.4854 165.323 23.4854ZM186.441 25H179.259V23.6075H179.332C179.495 23.6075 179.682 23.6075 179.894 23.6075C180.106 23.5912 180.285 23.5668 180.432 23.5342C180.578 23.4854 180.651 23.4365 180.651 23.3877L177.06 18.6484V18.2575L181.36 14.3488C181.36 14.2185 181.254 14.129 181.042 14.0801C180.831 14.015 180.578 13.9743 180.285 13.958C180.008 13.9254 179.756 13.9091 179.528 13.9091H179.381V12.5166H185.586V13.9091H185.537C185.212 13.9091 184.894 13.9498 184.585 14.0313C184.291 14.1127 184.006 14.2348 183.729 14.3977C183.469 14.5606 183.216 14.756 182.972 14.984L179.186 18.4285L179.821 16.7918L184.389 22.7525C184.568 22.9805 184.764 23.1597 184.975 23.29C185.187 23.404 185.415 23.4854 185.659 23.5342C185.904 23.5831 186.148 23.6075 186.392 23.6075H186.441V25ZM176.498 7.02005V23.3877C176.498 23.4365 176.572 23.4854 176.718 23.5342C176.865 23.5668 177.044 23.5912 177.256 23.6075C177.467 23.6075 177.655 23.6075 177.818 23.6075H177.891V25H171.246V23.6075H171.271C171.564 23.6075 171.824 23.5912 172.052 23.5587C172.28 23.5098 172.459 23.4284 172.59 23.3144C172.736 23.2004 172.81 23.0375 172.81 22.8258V9.43855C172.81 9.22683 172.761 9.07211 172.663 8.97439C172.565 8.86039 172.419 8.77081 172.223 8.70567C172.028 8.64053 171.775 8.57538 171.466 8.51024L171.222 8.46138V7.02005H176.498Z" fill="#252525"/>
</svg>
